<?xml version="1.0" ?><!DOCTYPE svg  PUBLIC '-//W3C//DTD SVG 1.1//EN'  'http://www.w3.org/Graphics/SVG/1.1/DTD/svg11.dtd'><svg enable-background="new 0 0 32 32" version="1.1" viewBox="0 0 32 32" xml:space="preserve" xmlns="http://www.w3.org/2000/svg" xmlns:xlink="http://www.w3.org/1999/xlink"><g id="Desktop25"/><g id="Desktop24"/><g id="Desktop23"/><g id="Desktop22"/><g id="Desktop21"/><g id="Desktop20"/><g id="Desktop19"/><g id="Desktop18"/><g id="Desktop17"/><g id="Desktop16"/><g id="Desktop15"><g><path d="M31,10v1c0,1.65-1.35,3-3,3h-4c-0.43,0-0.81-0.28-0.95-0.68L22.28,11H9.72l-0.77,2.32    C8.81,13.72,8.43,14,8,14H4c-1.65,0-3-1.35-3-3v-1c0-2.76,2.24-5,5-5h20C28.76,5,31,7.24,31,10z" fill="#3F51B5"/></g><g><path d="M28,22.32V24c0,1.65-1.35,3-3,3H7c-1.65,0-3-1.35-3-3v-1.68c0-0.32,0.05-0.64,0.15-0.94l3.9-11.7    C8.19,9.28,8.57,9,9,9h14c0.43,0,0.81,0.28,0.95,0.68l3.9,11.69C27.95,21.68,28,22,28,22.32z" fill="#2197F3"/></g><circle cx="16" cy="18" fill="#FFFFFF" r="5"/><path d="M19,18c0,1.65-1.35,3-3,3s-3-1.35-3-3c0-1.65,1.35-3,3-3S19,16.35,19,18z" fill="#FFC10A"/></g><g id="Desktop14"/><g id="Desktop13"/><g id="Desktop12"/><g id="Desktop11"/><g id="Desktop10"/><g id="Desktop09"/><g id="Desktop08"/><g id="Desktop07"/><g id="Desktop06"/><g id="Desktop05"/><g id="Desktop04"/><g id="Desktop03"/><g id="Desktop02"/><g id="Desktop01"/></svg>